<mxfile host="65bd71144e">
    <diagram id="cuCBR892rWwLdLyr2Wum" name="ページ1">
        <mxGraphModel dx="792" dy="948" grid="0" gridSize="10" guides="1" tooltips="1" connect="1" arrows="1" fold="1" page="1" pageScale="1" pageWidth="800" pageHeight="96" background="#ffffff" math="0" shadow="0">
            <root>
                <mxCell id="0"/>
                <mxCell id="1" parent="0"/>
                <mxCell id="4" value="Store&lt;br&gt;" style="html=1;fillColor=#dae8fc;strokeColor=#6c8ebf;labelPosition=center;verticalLabelPosition=top;align=center;verticalAlign=bottom;fontColor=#000000;" parent="1" vertex="1">
                    <mxGeometry x="40" y="40" width="720" height="480" as="geometry"/>
                </mxCell>
                <mxCell id="5" value="Slice(for other)" style="html=1;fillColor=#fff2cc;strokeColor=#d6b656;labelPosition=center;verticalLabelPosition=top;align=center;verticalAlign=bottom;fontColor=#000000;fontSize=20;fontStyle=1" parent="1" vertex="1">
                    <mxGeometry x="80" y="80" width="160" height="400" as="geometry"/>
                </mxCell>
                <mxCell id="7" value="Slice(for Modal)" style="html=1;fillColor=#fff2cc;strokeColor=#d6b656;labelPosition=center;verticalLabelPosition=top;align=center;verticalAlign=bottom;fontColor=#000000;fontSize=20;fontStyle=1" parent="1" vertex="1">
                    <mxGeometry x="280" y="80" width="440" height="400" as="geometry"/>
                </mxCell>
                <mxCell id="20" style="edgeStyle=none;html=1;exitX=0.25;exitY=1;exitDx=0;exitDy=0;entryX=0.536;entryY=0;entryDx=0;entryDy=0;entryPerimeter=0;fontColor=#000000;strokeColor=#000000;" parent="1" source="8" target="9" edge="1">
                    <mxGeometry relative="1" as="geometry"/>
                </mxCell>
                <mxCell id="8" value="Reducer" style="html=1;fillColor=#d5e8d4;strokeColor=#82b366;labelPosition=center;verticalLabelPosition=middle;align=center;verticalAlign=middle;fontColor=#000000;fontSize=20;fontStyle=1" parent="1" vertex="1">
                    <mxGeometry x="400" y="120" width="280" height="120" as="geometry"/>
                </mxCell>
                <mxCell id="18" style="edgeStyle=none;html=1;exitX=0;exitY=0.5;exitDx=0;exitDy=0;fontColor=#000000;strokeColor=#000000;entryX=0;entryY=0.5;entryDx=0;entryDy=0;" parent="1" source="9" target="8" edge="1">
                    <mxGeometry relative="1" as="geometry">
                        <Array as="points">
                            <mxPoint x="260" y="390"/>
                            <mxPoint x="260" y="280"/>
                            <mxPoint x="260" y="180"/>
                        </Array>
                    </mxGeometry>
                </mxCell>
                <mxCell id="22" style="edgeStyle=none;html=1;exitX=0.25;exitY=1;exitDx=0;exitDy=0;fontColor=#000000;strokeColor=#000000;" parent="1" source="9" edge="1">
                    <mxGeometry relative="1" as="geometry">
                        <mxPoint x="390" y="561" as="targetPoint"/>
                    </mxGeometry>
                </mxCell>
                <mxCell id="9" value="State" style="html=1;fillColor=#f8cecc;strokeColor=#b85450;labelPosition=center;verticalLabelPosition=middle;align=center;verticalAlign=middle;fontColor=#000000;fontSize=20;fontStyle=1" parent="1" vertex="1">
                    <mxGeometry x="320" y="330" width="280" height="120" as="geometry"/>
                </mxCell>
                <mxCell id="14" style="edgeStyle=none;html=1;exitX=1;exitY=0.5;exitDx=0;exitDy=0;entryX=0;entryY=0.5;entryDx=0;entryDy=0;entryPerimeter=0;fontColor=#000000;strokeColor=#000000;" parent="1" source="10" target="12" edge="1">
                    <mxGeometry relative="1" as="geometry"/>
                </mxCell>
                <mxCell id="10" value="«Modal»&lt;br&gt;&lt;b&gt;Component&lt;/b&gt;" style="html=1;dropTarget=0;fillColor=#f5f5f5;fontColor=#333333;strokeColor=#666666;" parent="1" vertex="1">
                    <mxGeometry x="280" y="560" width="180" height="80" as="geometry"/>
                </mxCell>
                <mxCell id="11" value="" style="shape=module;jettyWidth=8;jettyHeight=4;fontColor=#000000;" parent="10" vertex="1">
                    <mxGeometry x="1" width="31" height="20" relative="1" as="geometry">
                        <mxPoint x="-38" y="7" as="offset"/>
                    </mxGeometry>
                </mxCell>
                <mxCell id="17" style="edgeStyle=none;html=1;exitX=0.5;exitY=0;exitDx=0;exitDy=0;exitPerimeter=0;entryX=0.857;entryY=1;entryDx=0;entryDy=0;entryPerimeter=0;fontColor=#000000;strokeColor=#000000;" parent="1" source="12" target="8" edge="1">
                    <mxGeometry relative="1" as="geometry"/>
                </mxCell>
                <mxCell id="12" value="Action" style="verticalLabelPosition=middle;verticalAlign=middle;html=1;shape=mxgraph.flowchart.on-page_reference;fontColor=#333333;fillColor=#f5f5f5;strokeColor=#666666;labelPosition=center;align=center;" parent="1" vertex="1">
                    <mxGeometry x="600" y="560" width="80" height="80" as="geometry"/>
                </mxCell>
                <mxCell id="15" style="edgeStyle=none;html=1;fontColor=#000000;" parent="1" target="10" edge="1">
                    <mxGeometry relative="1" as="geometry">
                        <mxPoint x="460" y="600" as="sourcePoint"/>
                    </mxGeometry>
                </mxCell>
                <mxCell id="16" value="1.dispatch" style="text;html=1;align=center;verticalAlign=middle;resizable=0;points=[];autosize=1;strokeColor=none;fillColor=none;fontColor=#000000;" parent="1" vertex="1">
                    <mxGeometry x="505" y="580" width="70" height="20" as="geometry"/>
                </mxCell>
                <mxCell id="19" value="2.Stateの現在値を渡す" style="text;html=1;align=center;verticalAlign=middle;resizable=0;points=[];autosize=1;strokeColor=none;fillColor=none;fontColor=#000000;" parent="1" vertex="1">
                    <mxGeometry x="240" y="160" width="140" height="20" as="geometry"/>
                </mxCell>
                <mxCell id="21" value="3.更新したStateを渡す" style="text;html=1;align=center;verticalAlign=middle;resizable=0;points=[];autosize=1;strokeColor=none;fillColor=none;fontColor=#000000;" parent="1" vertex="1">
                    <mxGeometry x="330" y="280" width="140" height="20" as="geometry"/>
                </mxCell>
                <mxCell id="23" value="4.State更新の通知" style="text;html=1;align=center;verticalAlign=middle;resizable=0;points=[];autosize=1;strokeColor=none;fillColor=none;fontColor=#000000;" parent="1" vertex="1">
                    <mxGeometry x="280" y="530" width="110" height="20" as="geometry"/>
                </mxCell>
                <mxCell id="24" value="Reducer" style="html=1;fillColor=#d5e8d4;strokeColor=#82b366;labelPosition=center;verticalLabelPosition=middle;align=center;verticalAlign=middle;fontColor=#000000;fontSize=20;fontStyle=1" parent="1" vertex="1">
                    <mxGeometry x="110" y="120" width="120" height="120" as="geometry"/>
                </mxCell>
                <mxCell id="26" value="State" style="html=1;fillColor=#f8cecc;strokeColor=#b85450;labelPosition=center;verticalLabelPosition=middle;align=center;verticalAlign=middle;fontColor=#000000;fontSize=20;fontStyle=1" parent="1" vertex="1">
                    <mxGeometry x="90" y="330" width="120" height="120" as="geometry"/>
                </mxCell>
            </root>
        </mxGraphModel>
    </diagram>
</mxfile>